<svg width="263" height="322" viewBox="0 0 263 322" fill="none" xmlns="http://www.w3.org/2000/svg">
<path d="M44 16C46.5013 18.7384 47.9228 22.292 48 26C47.9228 29.708 46.5013 33.2616 44 36M44 16C41.4987 18.7384 40.0772 22.292 40 26C40.0772 29.708 41.4987 33.2616 44 36M44 16C38.4772 16 34 20.4772 34 26C34 31.5228 38.4772 36 44 36M44 16C49.5228 16 54 20.4772 54 26C54 31.5228 49.5228 36 44 36M34.5 23H53.5M34.5 29H53.5" stroke="#04004D" stroke-width="1.5" stroke-linecap="round" stroke-linejoin="round"/>
<path d="M76.7784 24C76.6612 23.6413 76.5067 23.32 76.315 23.0359C76.1268 22.7482 75.9013 22.5032 75.6385 22.3008C75.3793 22.0984 75.0845 21.9439 74.7543 21.8374C74.424 21.7308 74.0618 21.6776 73.6676 21.6776C73.0213 21.6776 72.4336 21.8445 71.9045 22.1783C71.3754 22.5121 70.9545 23.0039 70.642 23.6538C70.3295 24.3036 70.1733 25.1009 70.1733 26.0455C70.1733 26.9901 70.3313 27.7873 70.6474 28.4371C70.9634 29.087 71.3913 29.5788 71.9311 29.9126C72.4709 30.2464 73.0781 30.4134 73.7528 30.4134C74.3778 30.4134 74.9283 30.2802 75.4041 30.0138C75.8835 29.744 76.2564 29.364 76.5227 28.8739C76.7926 28.3803 76.9276 27.7997 76.9276 27.1321L77.3324 27.2173H74.0511V26.0455H78.206V27.2173C78.206 28.1158 78.0142 28.897 77.6307 29.5611C77.2507 30.2251 76.7251 30.7401 76.054 31.1058C75.3864 31.468 74.6193 31.6491 73.7528 31.6491C72.7869 31.6491 71.9382 31.4219 71.2067 30.9673C70.4787 30.5128 69.9105 29.8665 69.5021 29.0284C69.0973 28.1903 68.8949 27.196 68.8949 26.0455C68.8949 25.1825 69.0103 24.4066 69.2411 23.7177C69.4755 23.0252 69.8058 22.4357 70.2319 21.9492C70.658 21.4627 71.1623 21.0898 71.7447 20.8306C72.3271 20.5714 72.968 20.4418 73.6676 20.4418C74.2429 20.4418 74.7791 20.5288 75.2763 20.7028C75.777 20.8732 76.2227 21.1165 76.6133 21.4325C77.0075 21.745 77.3359 22.1197 77.5987 22.5565C77.8615 22.9897 78.0426 23.4709 78.142 24H76.7784ZM83.4284 31.6705C82.6401 31.6705 81.96 31.4964 81.3883 31.1484C80.8201 30.7969 80.3816 30.3068 80.0726 29.6783C79.7672 29.0462 79.6145 28.3111 79.6145 27.473C79.6145 26.6349 79.7672 25.8963 80.0726 25.2571C80.3816 24.6143 80.8112 24.1136 81.3617 23.755C81.9156 23.3928 82.5619 23.2116 83.3006 23.2116C83.7267 23.2116 84.1475 23.2827 84.563 23.4247C84.9785 23.5668 85.3567 23.7976 85.6976 24.1172C86.0385 24.4332 86.3102 24.8523 86.5126 25.3743C86.715 25.8963 86.8162 26.5391 86.8162 27.3026V27.8352H80.5094V26.7486H85.5378C85.5378 26.2869 85.4455 25.875 85.2608 25.5128C85.0797 25.1506 84.8205 24.8647 84.4831 24.6552C84.1493 24.4457 83.7551 24.3409 83.3006 24.3409C82.7999 24.3409 82.3666 24.4652 82.0009 24.7138C81.6387 24.9588 81.3599 25.2784 81.1646 25.6726C80.9693 26.0668 80.8716 26.4893 80.8716 26.9403V27.6648C80.8716 28.2827 80.9781 28.8065 81.1912 29.2362C81.4078 29.6623 81.7079 29.9872 82.0914 30.2109C82.4749 30.4311 82.9206 30.5412 83.4284 30.5412C83.7587 30.5412 84.057 30.495 84.3233 30.4027C84.5932 30.3068 84.8258 30.1648 85.0211 29.9766C85.2164 29.7848 85.3673 29.5469 85.4739 29.2628L86.6884 29.6037C86.5605 30.0156 86.3457 30.3778 86.0438 30.6903C85.742 30.9993 85.3691 31.2408 84.9252 31.4148C84.4813 31.5852 83.9824 31.6705 83.4284 31.6705ZM91.9867 23.3182V24.3835H87.7467V23.3182H91.9867ZM88.9825 21.358H90.2396V29.1562C90.2396 29.5114 90.2911 29.7777 90.3941 29.9553C90.5006 30.1293 90.6355 30.2464 90.7989 30.3068C90.9658 30.3636 91.1416 30.392 91.3262 30.392C91.4647 30.392 91.5784 30.3849 91.6671 30.3707C91.7559 30.353 91.8269 30.3388 91.8802 30.3281L92.1359 31.4574C92.0507 31.4893 91.9317 31.5213 91.779 31.5533C91.6263 31.5888 91.4328 31.6065 91.1984 31.6065C90.8433 31.6065 90.4953 31.5302 90.1543 31.3775C89.817 31.2248 89.5365 30.9922 89.3127 30.6797C89.0926 30.3672 88.9825 29.973 88.9825 29.4972V21.358ZM103.633 23.3182C103.569 22.7784 103.31 22.3594 102.855 22.0611C102.401 21.7628 101.843 21.6136 101.183 21.6136C100.7 21.6136 100.277 21.6918 99.9148 21.848C99.5561 22.0043 99.2756 22.2191 99.0732 22.4925C98.8743 22.766 98.7749 23.0767 98.7749 23.4247C98.7749 23.7159 98.8441 23.9663 98.9826 24.1758C99.1247 24.3817 99.3058 24.554 99.5259 24.6925C99.7461 24.8274 99.9769 24.9393 100.218 25.0281C100.46 25.1133 100.682 25.1825 100.884 25.2358L101.992 25.5341C102.276 25.6087 102.592 25.7116 102.94 25.843C103.292 25.9744 103.628 26.1538 103.947 26.381C104.27 26.6048 104.537 26.8924 104.746 27.244C104.956 27.5955 105.06 28.027 105.06 28.5384C105.06 29.1278 104.906 29.6605 104.597 30.1364C104.292 30.6122 103.844 30.9904 103.255 31.271C102.669 31.5515 101.957 31.6918 101.119 31.6918C100.337 31.6918 99.6609 31.5657 99.0892 31.3136C98.521 31.0614 98.0735 30.7099 97.7468 30.2589C97.4237 29.8079 97.2408 29.2841 97.1982 28.6875H98.5618C98.5973 29.0994 98.7358 29.4403 98.9773 29.7102C99.2223 29.9766 99.5313 30.1754 99.9041 30.3068C100.281 30.4347 100.685 30.4986 101.119 30.4986C101.623 30.4986 102.076 30.4169 102.477 30.2536C102.878 30.0866 103.196 29.8558 103.43 29.5611C103.665 29.2628 103.782 28.9148 103.782 28.517C103.782 28.1548 103.681 27.8601 103.478 27.6328C103.276 27.4055 103.01 27.2209 102.679 27.0788C102.349 26.9368 101.992 26.8125 101.609 26.706L100.266 26.3224C99.4141 26.0774 98.7394 25.7276 98.2422 25.2731C97.745 24.8185 97.4965 24.2237 97.4965 23.4886C97.4965 22.8778 97.6616 22.3452 97.9918 21.8906C98.3257 21.4325 98.7731 21.0774 99.3342 20.8253C99.8988 20.5696 100.529 20.4418 101.225 20.4418C101.928 20.4418 102.553 20.5678 103.1 20.82C103.647 21.0685 104.08 21.4094 104.4 21.8427C104.723 22.2759 104.893 22.7678 104.911 23.3182H103.633ZM110.32 23.3182V24.3835H106.08V23.3182H110.32ZM107.316 21.358H108.573V29.1562C108.573 29.5114 108.624 29.7777 108.727 29.9553C108.834 30.1293 108.969 30.2464 109.132 30.3068C109.299 30.3636 109.475 30.392 109.66 30.392C109.798 30.392 109.912 30.3849 110.001 30.3707C110.089 30.353 110.16 30.3388 110.214 30.3281L110.469 31.4574C110.384 31.4893 110.265 31.5213 110.112 31.5533C109.96 31.5888 109.766 31.6065 109.532 31.6065C109.177 31.6065 108.829 31.5302 108.488 31.3775C108.15 31.2248 107.87 30.9922 107.646 30.6797C107.426 30.3672 107.316 29.973 107.316 29.4972V21.358ZM114.319 31.6918C113.8 31.6918 113.33 31.5941 112.907 31.3988C112.485 31.1999 112.149 30.9141 111.9 30.5412C111.652 30.1648 111.528 29.7102 111.528 29.1776C111.528 28.7088 111.62 28.3288 111.805 28.0376C111.989 27.7429 112.236 27.5121 112.545 27.3452C112.854 27.1783 113.195 27.054 113.568 26.9723C113.944 26.8871 114.322 26.8196 114.702 26.7699C115.199 26.706 115.603 26.658 115.911 26.6261C116.224 26.5906 116.451 26.532 116.593 26.4503C116.739 26.3686 116.812 26.2266 116.812 26.0241V25.9815C116.812 25.456 116.668 25.0476 116.38 24.7564C116.096 24.4652 115.665 24.3196 115.086 24.3196C114.486 24.3196 114.015 24.451 113.674 24.7138C113.333 24.9766 113.094 25.2571 112.955 25.5554L111.762 25.1293C111.975 24.6321 112.259 24.245 112.614 23.968C112.973 23.6875 113.364 23.4922 113.786 23.3821C114.212 23.2685 114.631 23.2116 115.043 23.2116C115.306 23.2116 115.608 23.2436 115.949 23.3075C116.293 23.3679 116.625 23.494 116.945 23.6857C117.268 23.8775 117.536 24.1669 117.749 24.554C117.962 24.9411 118.069 25.4595 118.069 26.1094V31.5H116.812V30.392H116.748C116.663 30.5696 116.52 30.7596 116.322 30.962C116.123 31.1644 115.858 31.3366 115.528 31.4787C115.198 31.6207 114.795 31.6918 114.319 31.6918ZM114.511 30.5625C115.008 30.5625 115.427 30.4648 115.768 30.2695C116.112 30.0742 116.371 29.8221 116.545 29.5131C116.723 29.2042 116.812 28.8793 116.812 28.5384V27.3878C116.758 27.4517 116.641 27.5103 116.46 27.5636C116.283 27.6133 116.077 27.6577 115.842 27.6967C115.611 27.7322 115.386 27.7642 115.166 27.7926C114.949 27.8175 114.773 27.8388 114.638 27.8565C114.312 27.8991 114.006 27.9684 113.722 28.0643C113.442 28.1566 113.214 28.2969 113.04 28.4851C112.87 28.6697 112.785 28.9219 112.785 29.2415C112.785 29.6783 112.946 30.0085 113.269 30.2322C113.596 30.4524 114.01 30.5625 114.511 30.5625ZM120.063 31.5V23.3182H121.278V24.554H121.363C121.512 24.1491 121.782 23.8207 122.173 23.5685C122.563 23.3164 123.004 23.1903 123.494 23.1903C123.586 23.1903 123.701 23.1921 123.84 23.1957C123.978 23.1992 124.083 23.2045 124.154 23.2116V24.4901C124.112 24.4794 124.014 24.4634 123.861 24.4421C123.712 24.4173 123.554 24.4048 123.387 24.4048C122.989 24.4048 122.634 24.4883 122.322 24.6552C122.013 24.8185 121.768 25.0458 121.587 25.337C121.409 25.6246 121.32 25.9531 121.32 26.3224V31.5H120.063ZM129.415 23.3182V24.3835H125.175V23.3182H129.415ZM126.411 21.358H127.668V29.1562C127.668 29.5114 127.72 29.7777 127.823 29.9553C127.929 30.1293 128.064 30.2464 128.227 30.3068C128.394 30.3636 128.57 30.392 128.755 30.392C128.893 30.392 129.007 30.3849 129.096 30.3707C129.184 30.353 129.255 30.3388 129.309 30.3281L129.564 31.4574C129.479 31.4893 129.36 31.5213 129.208 31.5533C129.055 31.5888 128.861 31.6065 128.627 31.6065C128.272 31.6065 127.924 31.5302 127.583 31.3775C127.246 31.2248 126.965 30.9922 126.741 30.6797C126.521 30.3672 126.411 29.973 126.411 29.4972V21.358ZM134.349 31.6705C133.56 31.6705 132.88 31.4964 132.309 31.1484C131.74 30.7969 131.302 30.3068 130.993 29.6783C130.688 29.0462 130.535 28.3111 130.535 27.473C130.535 26.6349 130.688 25.8963 130.993 25.2571C131.302 24.6143 131.732 24.1136 132.282 23.755C132.836 23.3928 133.482 23.2116 134.221 23.2116C134.647 23.2116 135.068 23.2827 135.483 23.4247C135.899 23.5668 136.277 23.7976 136.618 24.1172C136.959 24.4332 137.23 24.8523 137.433 25.3743C137.635 25.8963 137.737 26.5391 137.737 27.3026V27.8352H131.43V26.7486H136.458C136.458 26.2869 136.366 25.875 136.181 25.5128C136 25.1506 135.741 24.8647 135.403 24.6552C135.07 24.4457 134.675 24.3409 134.221 24.3409C133.72 24.3409 133.287 24.4652 132.921 24.7138C132.559 24.9588 132.28 25.2784 132.085 25.6726C131.89 26.0668 131.792 26.4893 131.792 26.9403V27.6648C131.792 28.2827 131.898 28.8065 132.112 29.2362C132.328 29.6623 132.628 29.9872 133.012 30.2109C133.395 30.4311 133.841 30.5412 134.349 30.5412C134.679 30.5412 134.977 30.495 135.244 30.4027C135.514 30.3068 135.746 30.1648 135.941 29.9766C136.137 29.7848 136.288 29.5469 136.394 29.2628L137.609 29.6037C137.481 30.0156 137.266 30.3778 136.964 30.6903C136.662 30.9993 136.289 31.2408 135.846 31.4148C135.402 31.5852 134.903 31.6705 134.349 31.6705ZM142.438 31.6705C141.756 31.6705 141.155 31.4982 140.633 31.1538C140.111 30.8058 139.702 30.3157 139.407 29.6836C139.113 29.0479 138.965 28.2969 138.965 27.4304C138.965 26.571 139.113 25.8253 139.407 25.1932C139.702 24.5611 140.112 24.0728 140.638 23.7283C141.163 23.3839 141.771 23.2116 142.46 23.2116C142.992 23.2116 143.413 23.3004 143.722 23.478C144.035 23.652 144.272 23.8509 144.436 24.0746C144.603 24.2947 144.732 24.4759 144.825 24.6179H144.931V20.5909H146.188V31.5H144.974V30.2429H144.825C144.732 30.392 144.601 30.5803 144.43 30.8075C144.26 31.0312 144.017 31.2319 143.701 31.4094C143.385 31.5835 142.964 31.6705 142.438 31.6705ZM142.609 30.5412C143.113 30.5412 143.539 30.4098 143.887 30.147C144.235 29.8807 144.5 29.5131 144.681 29.0444C144.862 28.5721 144.953 28.027 144.953 27.4091C144.953 26.7983 144.864 26.2638 144.686 25.8058C144.509 25.3441 144.246 24.9854 143.898 24.7298C143.55 24.4705 143.12 24.3409 142.609 24.3409C142.076 24.3409 141.632 24.4776 141.277 24.7511C140.926 25.021 140.661 25.3885 140.483 25.8537C140.309 26.3153 140.222 26.8338 140.222 27.4091C140.222 27.9915 140.311 28.5206 140.489 28.9964C140.67 29.4687 140.936 29.8452 141.288 30.1257C141.643 30.4027 142.083 30.5412 142.609 30.5412Z" fill="#04004D"/>
<rect width="263" height="52" transform="translate(0 54)" fill="#3976E8"/>
<path d="M42.5 87.9V72.1C42.5 70.6 41.86 70 40.27 70H36.23C34.64 70 34 70.6 34 72.1V87.9C34 89.4 34.64 90 36.23 90H40.27C41.86 90 42.5 89.4 42.5 87.9Z" stroke="white" stroke-width="1.5" stroke-linecap="round" stroke-linejoin="round"/>
<path d="M54 78.9V72.1C54 70.6 53.36 70 51.77 70H47.73C46.14 70 45.5 70.6 45.5 72.1V78.9C45.5 80.4 46.14 81 47.73 81H51.77C53.36 81 54 80.4 54 78.9Z" stroke="white" stroke-width="1.5" stroke-linecap="round" stroke-linejoin="round"/>
<path d="M54 87.9V86.1C54 84.6 53.36 84 51.77 84H47.73C46.14 84 45.5 84.6 45.5 86.1V87.9C45.5 89.4 46.14 90 47.73 90H51.77C53.36 90 54 89.4 54 87.9Z" stroke="white" stroke-width="1.5" stroke-linecap="round" stroke-linejoin="round"/>
<path d="M72.6875 85.5H69.321V74.5909H72.8366C73.8949 74.5909 74.8004 74.8093 75.5533 75.2461C76.3061 75.6793 76.8832 76.3026 77.2844 77.1158C77.6857 77.9254 77.8864 78.8949 77.8864 80.0241C77.8864 81.1605 77.6839 82.1388 77.2791 82.9592C76.8743 83.7759 76.2848 84.4045 75.5107 84.8448C74.7365 85.2816 73.7955 85.5 72.6875 85.5ZM70.642 84.3281H72.6023C73.5043 84.3281 74.2518 84.1541 74.8448 83.8061C75.4379 83.4581 75.88 82.9627 76.1712 82.32C76.4624 81.6772 76.608 80.9119 76.608 80.0241C76.608 79.1435 76.4641 78.3853 76.1765 77.7496C75.8888 77.1104 75.4592 76.6204 74.8874 76.2795C74.3157 75.935 73.6037 75.7628 72.7514 75.7628H70.642V84.3281ZM82.0395 85.6918C81.521 85.6918 81.0505 85.5941 80.6279 85.3988C80.2053 85.1999 79.8697 84.9141 79.6212 84.5412C79.3726 84.1648 79.2483 83.7102 79.2483 83.1776C79.2483 82.7088 79.3406 82.3288 79.5253 82.0376C79.7099 81.7429 79.9567 81.5121 80.2657 81.3452C80.5746 81.1783 80.9156 81.054 81.2884 80.9723C81.6648 80.8871 82.043 80.8196 82.423 80.7699C82.9202 80.706 83.3232 80.658 83.6322 80.6261C83.9447 80.5906 84.1719 80.532 84.314 80.4503C84.4596 80.3686 84.5324 80.2266 84.5324 80.0241V79.9815C84.5324 79.456 84.3886 79.0476 84.1009 78.7564C83.8168 78.4652 83.3854 78.3196 82.8065 78.3196C82.2064 78.3196 81.7359 78.451 81.395 78.7138C81.054 78.9766 80.8143 79.2571 80.6759 79.5554L79.4827 79.1293C79.6957 78.6321 79.9798 78.245 80.3349 77.968C80.6936 77.6875 81.0842 77.4922 81.5068 77.3821C81.933 77.2685 82.352 77.2116 82.7639 77.2116C83.0267 77.2116 83.3286 77.2436 83.6695 77.3075C84.0139 77.3679 84.346 77.494 84.6656 77.6857C84.9887 77.8775 85.2568 78.1669 85.4699 78.554C85.683 78.9411 85.7895 79.4595 85.7895 80.1094V85.5H84.5324V84.392H84.4685C84.3832 84.5696 84.2412 84.7596 84.0423 84.962C83.8435 85.1644 83.5789 85.3366 83.2487 85.4787C82.9184 85.6207 82.5153 85.6918 82.0395 85.6918ZM82.2312 84.5625C82.7284 84.5625 83.1474 84.4648 83.4884 84.2695C83.8328 84.0742 84.092 83.8221 84.2661 83.5131C84.4436 83.2042 84.5324 82.8793 84.5324 82.5384V81.3878C84.4791 81.4517 84.3619 81.5103 84.1808 81.5636C84.0033 81.6133 83.7973 81.6577 83.5629 81.6967C83.3321 81.7322 83.1066 81.7642 82.8864 81.7926C82.6698 81.8175 82.494 81.8388 82.3591 81.8565C82.0324 81.8991 81.727 81.9684 81.4429 82.0643C81.1624 82.1566 80.9351 82.2969 80.7611 82.4851C80.5906 82.6697 80.5054 82.9219 80.5054 83.2415C80.5054 83.6783 80.667 84.0085 80.9901 84.2322C81.3168 84.4524 81.7305 84.5625 82.2312 84.5625ZM93.5794 79.1506L92.4502 79.4702C92.3791 79.282 92.2744 79.0991 92.1359 78.9215C92.0009 78.7404 91.8163 78.5913 91.5819 78.4741C91.3475 78.3569 91.0475 78.2983 90.6817 78.2983C90.181 78.2983 89.7637 78.4137 89.4299 78.6445C89.0997 78.8718 88.9345 79.1612 88.9345 79.5128C88.9345 79.8253 89.0482 80.0721 89.2754 80.2532C89.5027 80.4343 89.8578 80.5852 90.3408 80.706L91.5553 81.0043C92.2868 81.1818 92.8319 81.4535 93.1906 81.8192C93.5492 82.1815 93.7286 82.6484 93.7286 83.2202C93.7286 83.6889 93.5936 84.108 93.3237 84.4773C93.0574 84.8466 92.6845 85.1378 92.2051 85.3509C91.7257 85.5639 91.1682 85.6705 90.5325 85.6705C89.698 85.6705 89.0073 85.4893 88.4605 85.1271C87.9136 84.7649 87.5673 84.2358 87.4218 83.5398L88.6149 83.2415C88.7286 83.6818 88.9434 84.0121 89.2595 84.2322C89.5791 84.4524 89.9963 84.5625 90.5112 84.5625C91.0972 84.5625 91.5624 84.4382 91.9068 84.1896C92.2548 83.9375 92.4289 83.6357 92.4289 83.2841C92.4289 83 92.3294 82.7621 92.1306 82.5703C91.9317 82.375 91.6263 82.2294 91.2144 82.1335L89.8507 81.8139C89.1014 81.6364 88.551 81.3612 88.1994 80.9883C87.8514 80.6119 87.6774 80.1413 87.6774 79.5767C87.6774 79.1151 87.807 78.7067 88.0663 78.3516C88.3291 77.9964 88.686 77.7177 89.1369 77.5153C89.5915 77.3129 90.1064 77.2116 90.6817 77.2116C91.4914 77.2116 92.127 77.3892 92.5887 77.7443C93.0539 78.0994 93.3841 78.5682 93.5794 79.1506ZM96.578 80.5781V85.5H95.3209V74.5909H96.578V78.5966H96.6845C96.8763 78.174 97.1639 77.8384 97.5474 77.5898C97.9345 77.3377 98.4494 77.2116 99.0922 77.2116C99.6497 77.2116 100.138 77.3235 100.557 77.5472C100.976 77.7674 101.301 78.1065 101.532 78.5646C101.766 79.0192 101.883 79.598 101.883 80.3011V85.5H100.626V80.3864C100.626 79.7365 100.458 79.234 100.12 78.8789C99.7864 78.5202 99.323 78.3409 98.73 78.3409C98.318 78.3409 97.9487 78.4279 97.622 78.6019C97.2989 78.7759 97.0432 79.0298 96.855 79.3636C96.6703 79.6974 96.578 80.1023 96.578 80.5781ZM104.054 85.5V74.5909H105.311V78.6179H105.417C105.51 78.4759 105.637 78.2947 105.801 78.0746C105.968 77.8509 106.206 77.652 106.515 77.478C106.827 77.3004 107.25 77.2116 107.782 77.2116C108.471 77.2116 109.078 77.3839 109.604 77.7283C110.13 78.0728 110.54 78.5611 110.835 79.1932C111.129 79.8253 111.277 80.571 111.277 81.4304C111.277 82.2969 111.129 83.0479 110.835 83.6836C110.54 84.3157 110.131 84.8058 109.609 85.1538C109.087 85.4982 108.485 85.6705 107.804 85.6705C107.278 85.6705 106.857 85.5835 106.541 85.4094C106.225 85.2319 105.982 85.0312 105.811 84.8075C105.641 84.5803 105.51 84.392 105.417 84.2429H105.268V85.5H104.054ZM105.289 81.4091C105.289 82.027 105.38 82.5721 105.561 83.0444C105.742 83.5131 106.007 83.8807 106.355 84.147C106.703 84.4098 107.129 84.5412 107.633 84.5412C108.159 84.5412 108.597 84.4027 108.949 84.1257C109.304 83.8452 109.57 83.4687 109.748 82.9964C109.929 82.5206 110.02 81.9915 110.02 81.4091C110.02 80.8338 109.931 80.3153 109.753 79.8537C109.579 79.3885 109.315 79.021 108.96 78.7511C108.608 78.4776 108.166 78.3409 107.633 78.3409C107.122 78.3409 106.692 78.4705 106.344 78.7298C105.996 78.9854 105.733 79.3441 105.556 79.8058C105.378 80.2638 105.289 80.7983 105.289 81.4091ZM116.223 85.6705C115.485 85.6705 114.837 85.4947 114.279 85.1431C113.725 84.7915 113.292 84.2997 112.979 83.6676C112.671 83.0355 112.516 82.2969 112.516 81.4517C112.516 80.5994 112.671 79.8555 112.979 79.2198C113.292 78.5842 113.725 78.0906 114.279 77.739C114.837 77.3874 115.485 77.2116 116.223 77.2116C116.962 77.2116 117.608 77.3874 118.162 77.739C118.72 78.0906 119.153 78.5842 119.462 79.2198C119.775 79.8555 119.931 80.5994 119.931 81.4517C119.931 82.2969 119.775 83.0355 119.462 83.6676C119.153 84.2997 118.72 84.7915 118.162 85.1431C117.608 85.4947 116.962 85.6705 116.223 85.6705ZM116.223 84.5412C116.785 84.5412 117.246 84.3974 117.608 84.1097C117.971 83.8221 118.239 83.4439 118.413 82.9751C118.587 82.5064 118.674 81.9986 118.674 81.4517C118.674 80.9048 118.587 80.3952 118.413 79.9229C118.239 79.4506 117.971 79.0689 117.608 78.7777C117.246 78.4865 116.785 78.3409 116.223 78.3409C115.662 78.3409 115.201 78.4865 114.839 78.7777C114.476 79.0689 114.208 79.4506 114.034 79.9229C113.86 80.3952 113.773 80.9048 113.773 81.4517C113.773 81.9986 113.86 82.5064 114.034 82.9751C114.208 83.4439 114.476 83.8221 114.839 84.1097C115.201 84.3974 115.662 84.5412 116.223 84.5412ZM123.957 85.6918C123.439 85.6918 122.968 85.5941 122.546 85.3988C122.123 85.1999 121.788 84.9141 121.539 84.5412C121.291 84.1648 121.166 83.7102 121.166 83.1776C121.166 82.7088 121.259 82.3288 121.443 82.0376C121.628 81.7429 121.875 81.5121 122.184 81.3452C122.493 81.1783 122.834 81.054 123.206 80.9723C123.583 80.8871 123.961 80.8196 124.341 80.7699C124.838 80.706 125.241 80.658 125.55 80.6261C125.863 80.5906 126.09 80.532 126.232 80.4503C126.378 80.3686 126.45 80.2266 126.45 80.0241V79.9815C126.45 79.456 126.307 79.0476 126.019 78.7564C125.735 78.4652 125.303 78.3196 124.725 78.3196C124.124 78.3196 123.654 78.451 123.313 78.7138C122.972 78.9766 122.732 79.2571 122.594 79.5554L121.401 79.1293C121.614 78.6321 121.898 78.245 122.253 77.968C122.612 77.6875 123.002 77.4922 123.425 77.3821C123.851 77.2685 124.27 77.2116 124.682 77.2116C124.945 77.2116 125.247 77.2436 125.587 77.3075C125.932 77.3679 126.264 77.494 126.584 77.6857C126.907 77.8775 127.175 78.1669 127.388 78.554C127.601 78.9411 127.707 79.4595 127.707 80.1094V85.5H126.45V84.392H126.386C126.301 84.5696 126.159 84.7596 125.96 84.962C125.761 85.1644 125.497 85.3366 125.167 85.4787C124.836 85.6207 124.433 85.6918 123.957 85.6918ZM124.149 84.5625C124.646 84.5625 125.065 84.4648 125.406 84.2695C125.751 84.0742 126.01 83.8221 126.184 83.5131C126.362 83.2042 126.45 82.8793 126.45 82.5384V81.3878C126.397 81.4517 126.28 81.5103 126.099 81.5636C125.921 81.6133 125.715 81.6577 125.481 81.6967C125.25 81.7322 125.025 81.7642 124.804 81.7926C124.588 81.8175 124.412 81.8388 124.277 81.8565C123.95 81.8991 123.645 81.9684 123.361 82.0643C123.08 82.1566 122.853 82.2969 122.679 82.4851C122.509 82.6697 122.423 82.9219 122.423 83.2415C122.423 83.6783 122.585 84.0085 122.908 84.2322C123.235 84.4524 123.649 84.5625 124.149 84.5625ZM129.702 85.5V77.3182H130.916V78.554H131.002C131.151 78.1491 131.421 77.8207 131.811 77.5685C132.202 77.3164 132.642 77.1903 133.132 77.1903C133.225 77.1903 133.34 77.1921 133.479 77.1957C133.617 77.1992 133.722 77.2045 133.793 77.2116V78.4901C133.75 78.4794 133.653 78.4634 133.5 78.4421C133.351 78.4173 133.193 78.4048 133.026 78.4048C132.628 78.4048 132.273 78.4883 131.96 78.6552C131.652 78.8185 131.406 79.0458 131.225 79.337C131.048 79.6246 130.959 79.9531 130.959 80.3224V85.5H129.702ZM137.823 85.6705C137.142 85.6705 136.54 85.4982 136.018 85.1538C135.496 84.8058 135.087 84.3157 134.793 83.6836C134.498 83.0479 134.35 82.2969 134.35 81.4304C134.35 80.571 134.498 79.8253 134.793 79.1932C135.087 78.5611 135.497 78.0728 136.023 77.7283C136.549 77.3839 137.156 77.2116 137.845 77.2116C138.377 77.2116 138.798 77.3004 139.107 77.478C139.42 77.652 139.658 77.8509 139.821 78.0746C139.988 78.2947 140.117 78.4759 140.21 78.6179H140.316V74.5909H141.573V85.5H140.359V84.2429H140.21C140.117 84.392 139.986 84.5803 139.816 84.8075C139.645 85.0312 139.402 85.2319 139.086 85.4094C138.77 85.5835 138.349 85.6705 137.823 85.6705ZM137.994 84.5412C138.498 84.5412 138.924 84.4098 139.272 84.147C139.62 83.8807 139.885 83.5131 140.066 83.0444C140.247 82.5721 140.338 82.027 140.338 81.4091C140.338 80.7983 140.249 80.2638 140.071 79.8058C139.894 79.3441 139.631 78.9854 139.283 78.7298C138.935 78.4705 138.505 78.3409 137.994 78.3409C137.461 78.3409 137.017 78.4776 136.662 78.7511C136.311 79.021 136.046 79.3885 135.869 79.8537C135.695 80.3153 135.608 80.8338 135.608 81.4091C135.608 81.9915 135.696 82.5206 135.874 82.9964C136.055 83.4687 136.321 83.8452 136.673 84.1257C137.028 84.4027 137.468 84.5412 137.994 84.5412Z" fill="white"/>
<path d="M50.04 135.55C49.62 135.96 49.38 136.55 49.44 137.18C49.53 138.26 50.52 139.05 51.6 139.05H53.5V140.24C53.5 142.31 51.81 144 49.74 144H38.26C36.19 144 34.5 142.31 34.5 140.24V133.51C34.5 131.44 36.19 129.75 38.26 129.75H49.74C51.81 129.75 53.5 131.44 53.5 133.51V134.95H51.48C50.92 134.95 50.41 135.17 50.04 135.55Z" stroke="#04004D" stroke-width="1.5" stroke-linecap="round" stroke-linejoin="round"/>
<path d="M34.5 134.41V129.84C34.5 128.65 35.23 127.59 36.34 127.17L44.28 124.17C45.52 123.7 46.85 124.62 46.85 125.95V129.75" stroke="#04004D" stroke-width="1.5" stroke-linecap="round" stroke-linejoin="round"/>
<path d="M54.5588 135.97V138.03C54.5588 138.58 54.1188 139.03 53.5588 139.05H51.5988C50.5188 139.05 49.5288 138.26 49.4388 137.18C49.3788 136.55 49.6188 135.96 50.0388 135.55C50.4088 135.17 50.9188 134.95 51.4788 134.95H53.5588C54.1188 134.97 54.5588 135.42 54.5588 135.97Z" stroke="#04004D" stroke-width="1.5" stroke-linecap="round" stroke-linejoin="round"/>
<path d="M39 134H46" stroke="#04004D" stroke-width="1.5" stroke-linecap="round" stroke-linejoin="round"/>
<path d="M69.7685 139.5H68.3835L72.3892 128.591H73.7528L77.7585 139.5H76.3736L73.1136 130.317H73.0284L69.7685 139.5ZM70.2798 135.239H75.8622V136.411H70.2798V135.239ZM82.3112 139.67C81.5441 139.67 80.8836 139.489 80.3296 139.127C79.7756 138.765 79.3495 138.266 79.0512 137.63C78.7529 136.995 78.6038 136.268 78.6038 135.452C78.6038 134.621 78.7565 133.887 79.0619 133.252C79.3708 132.613 79.8005 132.114 80.3509 131.755C80.9049 131.393 81.5512 131.212 82.2898 131.212C82.8651 131.212 83.3836 131.318 83.8452 131.531C84.3069 131.744 84.6851 132.043 84.9798 132.426C85.2746 132.81 85.4575 133.257 85.5285 133.768H84.2714C84.1755 133.396 83.9624 133.065 83.6322 132.778C83.3055 132.487 82.8651 132.341 82.3112 132.341C81.8211 132.341 81.3914 132.469 81.0221 132.724C80.6563 132.977 80.3705 133.333 80.1645 133.795C79.9621 134.253 79.8609 134.791 79.8609 135.409C79.8609 136.041 79.9603 136.592 80.1592 137.06C80.3616 137.529 80.6457 137.893 81.0114 138.152C81.3808 138.412 81.814 138.541 82.3112 138.541C82.6379 138.541 82.9344 138.484 83.2007 138.371C83.467 138.257 83.6925 138.094 83.8772 137.881C84.0619 137.668 84.1933 137.412 84.2714 137.114H85.5285C85.4575 137.597 85.2817 138.032 85.0011 138.419C84.7241 138.802 84.3566 139.108 83.8985 139.335C83.444 139.559 82.9148 139.67 82.3112 139.67ZM90.3901 139.67C89.623 139.67 88.9625 139.489 88.4085 139.127C87.8545 138.765 87.4284 138.266 87.1301 137.63C86.8318 136.995 86.6827 136.268 86.6827 135.452C86.6827 134.621 86.8354 133.887 87.1408 133.252C87.4497 132.613 87.8794 132.114 88.4298 131.755C88.9838 131.393 89.6301 131.212 90.3687 131.212C90.944 131.212 91.4625 131.318 91.9241 131.531C92.3858 131.744 92.764 132.043 93.0587 132.426C93.3535 132.81 93.5364 133.257 93.6074 133.768H92.3503C92.2544 133.396 92.0413 133.065 91.7111 132.778C91.3844 132.487 90.944 132.341 90.3901 132.341C89.9 132.341 89.4703 132.469 89.101 132.724C88.7352 132.977 88.4494 133.333 88.2434 133.795C88.041 134.253 87.9398 134.791 87.9398 135.409C87.9398 136.041 88.0392 136.592 88.2381 137.06C88.4405 137.529 88.7246 137.893 89.0903 138.152C89.4597 138.412 89.8929 138.541 90.3901 138.541C90.7168 138.541 91.0133 138.484 91.2796 138.371C91.546 138.257 91.7714 138.094 91.9561 137.881C92.1408 137.668 92.2722 137.412 92.3503 137.114H93.6074C93.5364 137.597 93.3606 138.032 93.08 138.419C92.8031 138.802 92.4355 139.108 91.9774 139.335C91.5229 139.559 90.9937 139.67 90.3901 139.67ZM98.469 139.67C97.7303 139.67 97.0822 139.495 96.5247 139.143C95.9707 138.792 95.5375 138.3 95.225 137.668C94.9161 137.036 94.7616 136.297 94.7616 135.452C94.7616 134.599 94.9161 133.855 95.225 133.22C95.5375 132.584 95.9707 132.091 96.5247 131.739C97.0822 131.387 97.7303 131.212 98.469 131.212C99.2076 131.212 99.8539 131.387 100.408 131.739C100.965 132.091 101.399 132.584 101.708 133.22C102.02 133.855 102.176 134.599 102.176 135.452C102.176 136.297 102.02 137.036 101.708 137.668C101.399 138.3 100.965 138.792 100.408 139.143C99.8539 139.495 99.2076 139.67 98.469 139.67ZM98.469 138.541C99.03 138.541 99.4917 138.397 99.8539 138.11C100.216 137.822 100.484 137.444 100.658 136.975C100.832 136.506 100.919 135.999 100.919 135.452C100.919 134.905 100.832 134.395 100.658 133.923C100.484 133.451 100.216 133.069 99.8539 132.778C99.4917 132.487 99.03 132.341 98.469 132.341C97.9079 132.341 97.4462 132.487 97.084 132.778C96.7218 133.069 96.4537 133.451 96.2797 133.923C96.1057 134.395 96.0187 134.905 96.0187 135.452C96.0187 135.999 96.1057 136.506 96.2797 136.975C96.4537 137.444 96.7218 137.822 97.084 138.11C97.4462 138.397 97.9079 138.541 98.469 138.541ZM108.952 136.155V131.318H110.209V139.5H108.952V138.115H108.866C108.675 138.531 108.376 138.884 107.971 139.175C107.567 139.463 107.055 139.607 106.437 139.607C105.926 139.607 105.471 139.495 105.074 139.271C104.676 139.044 104.363 138.703 104.136 138.248C103.909 137.79 103.795 137.213 103.795 136.517V131.318H105.052V136.432C105.052 137.028 105.219 137.504 105.553 137.859C105.89 138.214 106.32 138.392 106.842 138.392C107.155 138.392 107.472 138.312 107.796 138.152C108.122 137.993 108.396 137.748 108.616 137.417C108.84 137.087 108.952 136.666 108.952 136.155ZM113.468 134.578V139.5H112.211V131.318H113.426V132.597H113.532C113.724 132.181 114.015 131.847 114.406 131.595C114.796 131.339 115.301 131.212 115.919 131.212C116.472 131.212 116.957 131.325 117.373 131.553C117.788 131.776 118.111 132.117 118.342 132.575C118.573 133.03 118.688 133.605 118.688 134.301V139.5H117.431V134.386C117.431 133.744 117.264 133.243 116.931 132.884C116.597 132.522 116.139 132.341 115.556 132.341C115.155 132.341 114.796 132.428 114.48 132.602C114.168 132.776 113.921 133.03 113.74 133.364C113.559 133.697 113.468 134.102 113.468 134.578ZM124.244 131.318V132.384H120.004V131.318H124.244ZM121.24 129.358H122.497V137.156C122.497 137.511 122.548 137.778 122.651 137.955C122.758 138.129 122.893 138.246 123.056 138.307C123.223 138.364 123.399 138.392 123.583 138.392C123.722 138.392 123.835 138.385 123.924 138.371C124.013 138.353 124.084 138.339 124.137 138.328L124.393 139.457C124.308 139.489 124.189 139.521 124.036 139.553C123.883 139.589 123.69 139.607 123.455 139.607C123.1 139.607 122.752 139.53 122.411 139.377C122.074 139.225 121.793 138.992 121.57 138.68C121.35 138.367 121.24 137.973 121.24 137.497V129.358ZM131.484 133.151L130.354 133.47C130.283 133.282 130.179 133.099 130.04 132.922C129.905 132.74 129.721 132.591 129.486 132.474C129.252 132.357 128.952 132.298 128.586 132.298C128.085 132.298 127.668 132.414 127.334 132.645C127.004 132.872 126.839 133.161 126.839 133.513C126.839 133.825 126.952 134.072 127.18 134.253C127.407 134.434 127.762 134.585 128.245 134.706L129.46 135.004C130.191 135.182 130.736 135.453 131.095 135.819C131.454 136.181 131.633 136.648 131.633 137.22C131.633 137.689 131.498 138.108 131.228 138.477C130.962 138.847 130.589 139.138 130.109 139.351C129.63 139.564 129.072 139.67 128.437 139.67C127.602 139.67 126.912 139.489 126.365 139.127C125.818 138.765 125.472 138.236 125.326 137.54L126.519 137.241C126.633 137.682 126.848 138.012 127.164 138.232C127.483 138.452 127.901 138.562 128.416 138.562C129.001 138.562 129.467 138.438 129.811 138.19C130.159 137.937 130.333 137.636 130.333 137.284C130.333 137 130.234 136.762 130.035 136.57C129.836 136.375 129.531 136.229 129.119 136.134L127.755 135.814C127.006 135.636 126.455 135.361 126.104 134.988C125.756 134.612 125.582 134.141 125.582 133.577C125.582 133.115 125.711 132.707 125.971 132.352C126.233 131.996 126.59 131.718 127.041 131.515C127.496 131.313 128.011 131.212 128.586 131.212C129.396 131.212 130.031 131.389 130.493 131.744C130.958 132.099 131.288 132.568 131.484 133.151Z" fill="#04004D"/>
<path d="M38 182L40 180M40 180L38 178M40 180H38C35.7909 180 34 181.791 34 184M50 194L48 196M48 196L50 198M48 196H50C52.2091 196 54 194.209 54 192M42.189 182.5C42.8551 179.912 45.2042 178 48 178C51.3137 178 54 180.686 54 184C54 186.796 52.0879 189.145 49.5001 189.811M46 192C46 195.314 43.3137 198 40 198C36.6863 198 34 195.314 34 192C34 188.686 36.6863 186 40 186C43.3137 186 46 188.686 46 192Z" stroke="#23262F" stroke-width="1.5" stroke-linecap="round" stroke-linejoin="round"/>
<path d="M68.7244 183.763V182.591H76.9062V183.763H73.4759V193.5H72.1548V183.763H68.7244ZM77.625 193.5V185.318H78.8395V186.554H78.9247C79.0738 186.149 79.3437 185.821 79.7344 185.569C80.125 185.316 80.5653 185.19 81.0554 185.19C81.1477 185.19 81.2631 185.192 81.4016 185.196C81.5401 185.199 81.6449 185.205 81.7159 185.212V186.49C81.6733 186.479 81.5756 186.463 81.4229 186.442C81.2738 186.417 81.1157 186.405 80.9488 186.405C80.5511 186.405 80.196 186.488 79.8835 186.655C79.5746 186.819 79.3295 187.046 79.1484 187.337C78.9709 187.625 78.8821 187.953 78.8821 188.322V193.5H77.625ZM85.3137 193.692C84.7952 193.692 84.3247 193.594 83.9021 193.399C83.4795 193.2 83.144 192.914 82.8954 192.541C82.6468 192.165 82.5225 191.71 82.5225 191.178C82.5225 190.709 82.6148 190.329 82.7995 190.038C82.9842 189.743 83.231 189.512 83.5399 189.345C83.8489 189.178 84.1898 189.054 84.5626 188.972C84.9391 188.887 85.3173 188.82 85.6972 188.77C86.1944 188.706 86.5974 188.658 86.9064 188.626C87.2189 188.591 87.4462 188.532 87.5882 188.45C87.7338 188.369 87.8066 188.227 87.8066 188.024V187.982C87.8066 187.456 87.6628 187.048 87.3751 186.756C87.0911 186.465 86.6596 186.32 86.0808 186.32C85.4806 186.32 85.0101 186.451 84.6692 186.714C84.3283 186.977 84.0886 187.257 83.9501 187.555L82.7569 187.129C82.97 186.632 83.254 186.245 83.6092 185.968C83.9678 185.687 84.3585 185.492 84.781 185.382C85.2072 185.268 85.6262 185.212 86.0381 185.212C86.3009 185.212 86.6028 185.244 86.9437 185.308C87.2881 185.368 87.6202 185.494 87.9398 185.686C88.2629 185.877 88.531 186.167 88.7441 186.554C88.9572 186.941 89.0637 187.46 89.0637 188.109V193.5H87.8066V192.392H87.7427C87.6575 192.57 87.5154 192.76 87.3165 192.962C87.1177 193.164 86.8531 193.337 86.5229 193.479C86.1926 193.621 85.7896 193.692 85.3137 193.692ZM85.5055 192.562C86.0026 192.562 86.4217 192.465 86.7626 192.27C87.107 192.074 87.3663 191.822 87.5403 191.513C87.7178 191.204 87.8066 190.879 87.8066 190.538V189.388C87.7533 189.452 87.6362 189.51 87.455 189.564C87.2775 189.613 87.0715 189.658 86.8371 189.697C86.6063 189.732 86.3808 189.764 86.1607 189.793C85.944 189.817 85.7683 189.839 85.6333 189.857C85.3066 189.899 85.0012 189.968 84.7171 190.064C84.4366 190.157 84.2093 190.297 84.0353 190.485C83.8648 190.67 83.7796 190.922 83.7796 191.241C83.7796 191.678 83.9412 192.009 84.2643 192.232C84.5911 192.452 85.0048 192.562 85.5055 192.562ZM92.3153 188.578V193.5H91.0582V185.318H92.2727V186.597H92.3792C92.571 186.181 92.8622 185.847 93.2528 185.595C93.6434 185.339 94.1477 185.212 94.7656 185.212C95.3195 185.212 95.8043 185.325 96.2198 185.553C96.6352 185.776 96.9584 186.117 97.1892 186.575C97.42 187.03 97.5355 187.605 97.5355 188.301V193.5H96.2784V188.386C96.2784 187.744 96.1115 187.243 95.7776 186.884C95.4438 186.522 94.9857 186.341 94.4034 186.341C94.0021 186.341 93.6434 186.428 93.3274 186.602C93.0149 186.776 92.7681 187.03 92.587 187.364C92.4058 187.697 92.3153 188.102 92.3153 188.578ZM105.328 187.151L104.199 187.47C104.128 187.282 104.023 187.099 103.885 186.922C103.75 186.74 103.565 186.591 103.331 186.474C103.096 186.357 102.796 186.298 102.43 186.298C101.93 186.298 101.512 186.414 101.179 186.645C100.848 186.872 100.683 187.161 100.683 187.513C100.683 187.825 100.797 188.072 101.024 188.253C101.251 188.434 101.606 188.585 102.089 188.706L103.304 189.004C104.035 189.182 104.581 189.453 104.939 189.819C105.298 190.181 105.477 190.648 105.477 191.22C105.477 191.689 105.342 192.108 105.072 192.477C104.806 192.847 104.433 193.138 103.954 193.351C103.474 193.564 102.917 193.67 102.281 193.67C101.447 193.67 100.756 193.489 100.209 193.127C99.6622 192.765 99.316 192.236 99.1704 191.54L100.364 191.241C100.477 191.682 100.692 192.012 101.008 192.232C101.328 192.452 101.745 192.562 102.26 192.562C102.846 192.562 103.311 192.438 103.655 192.19C104.003 191.937 104.177 191.636 104.177 191.284C104.177 191 104.078 190.762 103.879 190.57C103.68 190.375 103.375 190.229 102.963 190.134L101.599 189.814C100.85 189.636 100.3 189.361 99.9481 188.988C99.6001 188.612 99.4261 188.141 99.4261 187.577C99.4261 187.115 99.5557 186.707 99.8149 186.352C100.078 185.996 100.435 185.718 100.886 185.515C101.34 185.313 101.855 185.212 102.43 185.212C103.24 185.212 103.876 185.389 104.337 185.744C104.802 186.099 105.133 186.568 105.328 187.151ZM110.713 185.318V186.384H106.302V185.318H110.713ZM107.623 193.5V184.189C107.623 183.72 107.734 183.33 107.954 183.017C108.174 182.705 108.46 182.47 108.811 182.314C109.163 182.158 109.534 182.08 109.925 182.08C110.234 182.08 110.486 182.104 110.681 182.154C110.876 182.204 111.022 182.25 111.118 182.293L110.756 183.379C110.692 183.358 110.603 183.331 110.489 183.299C110.379 183.267 110.234 183.251 110.052 183.251C109.637 183.251 109.337 183.356 109.152 183.566C108.971 183.775 108.881 184.082 108.881 184.487V193.5H107.623ZM115.268 193.67C114.48 193.67 113.8 193.496 113.228 193.148C112.66 192.797 112.221 192.307 111.912 191.678C111.607 191.046 111.454 190.311 111.454 189.473C111.454 188.635 111.607 187.896 111.912 187.257C112.221 186.614 112.651 186.114 113.202 185.755C113.755 185.393 114.402 185.212 115.14 185.212C115.567 185.212 115.987 185.283 116.403 185.425C116.818 185.567 117.197 185.798 117.537 186.117C117.878 186.433 118.15 186.852 118.352 187.374C118.555 187.896 118.656 188.539 118.656 189.303V189.835H112.349V188.749H117.378C117.378 188.287 117.285 187.875 117.101 187.513C116.92 187.151 116.66 186.865 116.323 186.655C115.989 186.446 115.595 186.341 115.14 186.341C114.64 186.341 114.206 186.465 113.841 186.714C113.478 186.959 113.2 187.278 113.004 187.673C112.809 188.067 112.711 188.489 112.711 188.94V189.665C112.711 190.283 112.818 190.806 113.031 191.236C113.248 191.662 113.548 191.987 113.931 192.211C114.315 192.431 114.76 192.541 115.268 192.541C115.599 192.541 115.897 192.495 116.163 192.403C116.433 192.307 116.666 192.165 116.861 191.977C117.056 191.785 117.207 191.547 117.314 191.263L118.528 191.604C118.4 192.016 118.186 192.378 117.884 192.69C117.582 192.999 117.209 193.241 116.765 193.415C116.321 193.585 115.822 193.67 115.268 193.67ZM120.268 193.5V185.318H121.483V186.554H121.568C121.717 186.149 121.987 185.821 122.378 185.569C122.768 185.316 123.209 185.19 123.699 185.19C123.791 185.19 123.906 185.192 124.045 185.196C124.183 185.199 124.288 185.205 124.359 185.212V186.49C124.317 186.479 124.219 186.463 124.066 186.442C123.917 186.417 123.759 186.405 123.592 186.405C123.194 186.405 122.839 186.488 122.527 186.655C122.218 186.819 121.973 187.046 121.792 187.337C121.614 187.625 121.525 187.953 121.525 188.322V193.5H120.268ZM131.345 187.151L130.216 187.47C130.145 187.282 130.04 187.099 129.901 186.922C129.766 186.74 129.582 186.591 129.347 186.474C129.113 186.357 128.813 186.298 128.447 186.298C127.946 186.298 127.529 186.414 127.195 186.645C126.865 186.872 126.7 187.161 126.7 187.513C126.7 187.825 126.814 188.072 127.041 188.253C127.268 188.434 127.623 188.585 128.106 188.706L129.321 189.004C130.052 189.182 130.597 189.453 130.956 189.819C131.315 190.181 131.494 190.648 131.494 191.22C131.494 191.689 131.359 192.108 131.089 192.477C130.823 192.847 130.45 193.138 129.971 193.351C129.491 193.564 128.934 193.67 128.298 193.67C127.463 193.67 126.773 193.489 126.226 193.127C125.679 192.765 125.333 192.236 125.187 191.54L126.38 191.241C126.494 191.682 126.709 192.012 127.025 192.232C127.344 192.452 127.762 192.562 128.277 192.562C128.863 192.562 129.328 192.438 129.672 192.19C130.02 191.937 130.194 191.636 130.194 191.284C130.194 191 130.095 190.762 129.896 190.57C129.697 190.375 129.392 190.229 128.98 190.134L127.616 189.814C126.867 189.636 126.316 189.361 125.965 188.988C125.617 188.612 125.443 188.141 125.443 187.577C125.443 187.115 125.572 186.707 125.832 186.352C126.094 185.996 126.451 185.718 126.902 185.515C127.357 185.313 127.872 185.212 128.447 185.212C129.257 185.212 129.892 185.389 130.354 185.744C130.819 186.099 131.15 186.568 131.345 187.151Z" fill="#04004D"/>
<path d="M41 252H47C52 252 54 250 54 245V239C54 234 52 232 47 232H41C36 232 34 234 34 239V245C34 250 36 252 41 252Z" stroke="#292D32" stroke-width="1.5" stroke-linecap="round" stroke-linejoin="round"/>
<path d="M47.75 239H40.25" stroke="#292D32" stroke-width="1.5" stroke-linecap="round" stroke-linejoin="round"/>
<path d="M47.75 245H40.25" stroke="#292D32" stroke-width="1.5" stroke-linecap="round" stroke-linejoin="round"/>
<path d="M68.7244 237.763V236.591H76.9062V237.763H73.4759V247.5H72.1548V237.763H68.7244ZM77.625 247.5V239.318H78.8395V240.554H78.9247C79.0738 240.149 79.3437 239.821 79.7344 239.569C80.125 239.316 80.5653 239.19 81.0554 239.19C81.1477 239.19 81.2631 239.192 81.4016 239.196C81.5401 239.199 81.6449 239.205 81.7159 239.212V240.49C81.6733 240.479 81.5756 240.463 81.4229 240.442C81.2738 240.417 81.1157 240.405 80.9488 240.405C80.5511 240.405 80.196 240.488 79.8835 240.655C79.5746 240.819 79.3295 241.046 79.1484 241.337C78.9709 241.625 78.8821 241.953 78.8821 242.322V247.5H77.625ZM85.3137 247.692C84.7952 247.692 84.3247 247.594 83.9021 247.399C83.4795 247.2 83.144 246.914 82.8954 246.541C82.6468 246.165 82.5225 245.71 82.5225 245.178C82.5225 244.709 82.6148 244.329 82.7995 244.038C82.9842 243.743 83.231 243.512 83.5399 243.345C83.8489 243.178 84.1898 243.054 84.5626 242.972C84.9391 242.887 85.3173 242.82 85.6972 242.77C86.1944 242.706 86.5974 242.658 86.9064 242.626C87.2189 242.591 87.4462 242.532 87.5882 242.45C87.7338 242.369 87.8066 242.227 87.8066 242.024V241.982C87.8066 241.456 87.6628 241.048 87.3751 240.756C87.0911 240.465 86.6596 240.32 86.0808 240.32C85.4806 240.32 85.0101 240.451 84.6692 240.714C84.3283 240.977 84.0886 241.257 83.9501 241.555L82.7569 241.129C82.97 240.632 83.254 240.245 83.6092 239.968C83.9678 239.687 84.3585 239.492 84.781 239.382C85.2072 239.268 85.6262 239.212 86.0381 239.212C86.3009 239.212 86.6028 239.244 86.9437 239.308C87.2881 239.368 87.6202 239.494 87.9398 239.686C88.2629 239.877 88.531 240.167 88.7441 240.554C88.9572 240.941 89.0637 241.46 89.0637 242.109V247.5H87.8066V246.392H87.7427C87.6575 246.57 87.5154 246.76 87.3165 246.962C87.1177 247.164 86.8531 247.337 86.5229 247.479C86.1926 247.621 85.7896 247.692 85.3137 247.692ZM85.5055 246.562C86.0026 246.562 86.4217 246.465 86.7626 246.27C87.107 246.074 87.3663 245.822 87.5403 245.513C87.7178 245.204 87.8066 244.879 87.8066 244.538V243.388C87.7533 243.452 87.6362 243.51 87.455 243.564C87.2775 243.613 87.0715 243.658 86.8371 243.697C86.6063 243.732 86.3808 243.764 86.1607 243.793C85.944 243.817 85.7683 243.839 85.6333 243.857C85.3066 243.899 85.0012 243.968 84.7171 244.064C84.4366 244.157 84.2093 244.297 84.0353 244.485C83.8648 244.67 83.7796 244.922 83.7796 245.241C83.7796 245.678 83.9412 246.009 84.2643 246.232C84.5911 246.452 85.0048 246.562 85.5055 246.562ZM92.3153 242.578V247.5H91.0582V239.318H92.2727V240.597H92.3792C92.571 240.181 92.8622 239.847 93.2528 239.595C93.6434 239.339 94.1477 239.212 94.7656 239.212C95.3195 239.212 95.8043 239.325 96.2198 239.553C96.6352 239.776 96.9584 240.117 97.1892 240.575C97.42 241.03 97.5355 241.605 97.5355 242.301V247.5H96.2784V242.386C96.2784 241.744 96.1115 241.243 95.7776 240.884C95.4438 240.522 94.9857 240.341 94.4034 240.341C94.0021 240.341 93.6434 240.428 93.3274 240.602C93.0149 240.776 92.7681 241.03 92.587 241.364C92.4058 241.697 92.3153 242.102 92.3153 242.578ZM105.328 241.151L104.199 241.47C104.128 241.282 104.023 241.099 103.885 240.922C103.75 240.74 103.565 240.591 103.331 240.474C103.096 240.357 102.796 240.298 102.43 240.298C101.93 240.298 101.512 240.414 101.179 240.645C100.848 240.872 100.683 241.161 100.683 241.513C100.683 241.825 100.797 242.072 101.024 242.253C101.251 242.434 101.606 242.585 102.089 242.706L103.304 243.004C104.035 243.182 104.581 243.453 104.939 243.819C105.298 244.181 105.477 244.648 105.477 245.22C105.477 245.689 105.342 246.108 105.072 246.477C104.806 246.847 104.433 247.138 103.954 247.351C103.474 247.564 102.917 247.67 102.281 247.67C101.447 247.67 100.756 247.489 100.209 247.127C99.6622 246.765 99.316 246.236 99.1704 245.54L100.364 245.241C100.477 245.682 100.692 246.012 101.008 246.232C101.328 246.452 101.745 246.562 102.26 246.562C102.846 246.562 103.311 246.438 103.655 246.19C104.003 245.937 104.177 245.636 104.177 245.284C104.177 245 104.078 244.762 103.879 244.57C103.68 244.375 103.375 244.229 102.963 244.134L101.599 243.814C100.85 243.636 100.3 243.361 99.9481 242.988C99.6001 242.612 99.4261 242.141 99.4261 241.577C99.4261 241.115 99.5557 240.707 99.8149 240.352C100.078 239.996 100.435 239.718 100.886 239.515C101.34 239.313 101.855 239.212 102.43 239.212C103.24 239.212 103.876 239.389 104.337 239.744C104.802 240.099 105.133 240.568 105.328 241.151ZM109.477 247.692C108.959 247.692 108.488 247.594 108.066 247.399C107.643 247.2 107.307 246.914 107.059 246.541C106.81 246.165 106.686 245.71 106.686 245.178C106.686 244.709 106.778 244.329 106.963 244.038C107.148 243.743 107.394 243.512 107.703 243.345C108.012 243.178 108.353 243.054 108.726 242.972C109.103 242.887 109.481 242.82 109.861 242.77C110.358 242.706 110.761 242.658 111.07 242.626C111.382 242.591 111.61 242.532 111.752 242.45C111.897 242.369 111.97 242.227 111.97 242.024V241.982C111.97 241.456 111.826 241.048 111.539 240.756C111.255 240.465 110.823 240.32 110.244 240.32C109.644 240.32 109.174 240.451 108.833 240.714C108.492 240.977 108.252 241.257 108.114 241.555L106.92 241.129C107.133 240.632 107.418 240.245 107.773 239.968C108.131 239.687 108.522 239.492 108.945 239.382C109.371 239.268 109.79 239.212 110.202 239.212C110.464 239.212 110.766 239.244 111.107 239.308C111.452 239.368 111.784 239.494 112.103 239.686C112.426 239.877 112.695 240.167 112.908 240.554C113.121 240.941 113.227 241.46 113.227 242.109V247.5H111.97V246.392H111.906C111.821 246.57 111.679 246.76 111.48 246.962C111.281 247.164 111.017 247.337 110.686 247.479C110.356 247.621 109.953 247.692 109.477 247.692ZM109.669 246.562C110.166 246.562 110.585 246.465 110.926 246.27C111.271 246.074 111.53 245.822 111.704 245.513C111.881 245.204 111.97 244.879 111.97 244.538V243.388C111.917 243.452 111.8 243.51 111.619 243.564C111.441 243.613 111.235 243.658 111.001 243.697C110.77 243.732 110.544 243.764 110.324 243.793C110.108 243.817 109.932 243.839 109.797 243.857C109.47 243.899 109.165 243.968 108.881 244.064C108.6 244.157 108.373 244.297 108.199 244.485C108.028 244.67 107.943 244.922 107.943 245.241C107.943 245.678 108.105 246.009 108.428 246.232C108.755 246.452 109.168 246.562 109.669 246.562ZM118.546 247.67C117.778 247.67 117.118 247.489 116.564 247.127C116.01 246.765 115.584 246.266 115.286 245.63C114.987 244.995 114.838 244.268 114.838 243.452C114.838 242.621 114.991 241.887 115.296 241.252C115.605 240.613 116.035 240.114 116.585 239.755C117.139 239.393 117.786 239.212 118.524 239.212C119.1 239.212 119.618 239.318 120.08 239.531C120.541 239.744 120.919 240.043 121.214 240.426C121.509 240.81 121.692 241.257 121.763 241.768H120.506C120.41 241.396 120.197 241.065 119.867 240.778C119.54 240.487 119.1 240.341 118.546 240.341C118.055 240.341 117.626 240.469 117.256 240.724C116.891 240.977 116.605 241.333 116.399 241.795C116.196 242.253 116.095 242.791 116.095 243.409C116.095 244.041 116.195 244.592 116.394 245.06C116.596 245.529 116.88 245.893 117.246 246.152C117.615 246.412 118.048 246.541 118.546 246.541C118.872 246.541 119.169 246.484 119.435 246.371C119.701 246.257 119.927 246.094 120.112 245.881C120.296 245.668 120.428 245.412 120.506 245.114H121.763C121.692 245.597 121.516 246.032 121.236 246.419C120.959 246.802 120.591 247.108 120.133 247.335C119.678 247.559 119.149 247.67 118.546 247.67ZM126.859 239.318V240.384H122.619V239.318H126.859ZM123.855 237.358H125.112V245.156C125.112 245.511 125.163 245.778 125.266 245.955C125.373 246.129 125.508 246.246 125.671 246.307C125.838 246.364 126.014 246.392 126.198 246.392C126.337 246.392 126.45 246.385 126.539 246.371C126.628 246.353 126.699 246.339 126.752 246.328L127.008 247.457C126.923 247.489 126.804 247.521 126.651 247.553C126.498 247.589 126.305 247.607 126.07 247.607C125.715 247.607 125.367 247.53 125.026 247.377C124.689 247.225 124.409 246.992 124.185 246.68C123.965 246.367 123.855 245.973 123.855 245.497V237.358ZM128.45 247.5V239.318H129.707V247.5H128.45ZM129.089 237.955C128.844 237.955 128.633 237.871 128.455 237.704C128.281 237.537 128.194 237.337 128.194 237.102C128.194 236.868 128.281 236.667 128.455 236.5C128.633 236.333 128.844 236.25 129.089 236.25C129.334 236.25 129.544 236.333 129.718 236.5C129.895 236.667 129.984 236.868 129.984 237.102C129.984 237.337 129.895 237.537 129.718 237.704C129.544 237.871 129.334 237.955 129.089 237.955ZM135.033 247.67C134.295 247.67 133.647 247.495 133.089 247.143C132.535 246.792 132.102 246.3 131.789 245.668C131.48 245.036 131.326 244.297 131.326 243.452C131.326 242.599 131.48 241.855 131.789 241.22C132.102 240.584 132.535 240.091 133.089 239.739C133.647 239.387 134.295 239.212 135.033 239.212C135.772 239.212 136.418 239.387 136.972 239.739C137.53 240.091 137.963 240.584 138.272 241.22C138.584 241.855 138.741 242.599 138.741 243.452C138.741 244.297 138.584 245.036 138.272 245.668C137.963 246.3 137.53 246.792 136.972 247.143C136.418 247.495 135.772 247.67 135.033 247.67ZM135.033 246.541C135.594 246.541 136.056 246.397 136.418 246.11C136.78 245.822 137.048 245.444 137.222 244.975C137.397 244.506 137.484 243.999 137.484 243.452C137.484 242.905 137.397 242.395 137.222 241.923C137.048 241.451 136.78 241.069 136.418 240.778C136.056 240.487 135.594 240.341 135.033 240.341C134.472 240.341 134.01 240.487 133.648 240.778C133.286 241.069 133.018 241.451 132.844 241.923C132.67 242.395 132.583 242.905 132.583 243.452C132.583 243.999 132.67 244.506 132.844 244.975C133.018 245.444 133.286 245.822 133.648 246.11C134.01 246.397 134.472 246.541 135.033 246.541ZM141.617 242.578V247.5H140.36V239.318H141.574V240.597H141.681C141.872 240.181 142.164 239.847 142.554 239.595C142.945 239.339 143.449 239.212 144.067 239.212C144.621 239.212 145.106 239.325 145.521 239.553C145.937 239.776 146.26 240.117 146.491 240.575C146.721 241.03 146.837 241.605 146.837 242.301V247.5H145.58V242.386C145.58 241.744 145.413 241.243 145.079 240.884C144.745 240.522 144.287 240.341 143.705 240.341C143.303 240.341 142.945 240.428 142.629 240.602C142.316 240.776 142.069 241.03 141.888 241.364C141.707 241.697 141.617 242.102 141.617 242.578ZM154.629 241.151L153.5 241.47C153.429 241.282 153.324 241.099 153.186 240.922C153.051 240.74 152.866 240.591 152.632 240.474C152.398 240.357 152.097 240.298 151.732 240.298C151.231 240.298 150.814 240.414 150.48 240.645C150.15 240.872 149.985 241.161 149.985 241.513C149.985 241.825 150.098 242.072 150.325 242.253C150.553 242.434 150.908 242.585 151.391 242.706L152.605 243.004C153.337 243.182 153.882 243.453 154.241 243.819C154.599 244.181 154.779 244.648 154.779 245.22C154.779 245.689 154.644 246.108 154.374 246.477C154.107 246.847 153.735 247.138 153.255 247.351C152.776 247.564 152.218 247.67 151.583 247.67C150.748 247.67 150.057 247.489 149.51 247.127C148.964 246.765 148.617 246.236 148.472 245.54L149.665 245.241C149.779 245.682 149.993 246.012 150.309 246.232C150.629 246.452 151.046 246.562 151.561 246.562C152.147 246.562 152.612 246.438 152.957 246.19C153.305 245.937 153.479 245.636 153.479 245.284C153.479 245 153.379 244.762 153.181 244.57C152.982 244.375 152.676 244.229 152.264 244.134L150.901 243.814C150.151 243.636 149.601 243.361 149.249 242.988C148.901 242.612 148.727 242.141 148.727 241.577C148.727 241.115 148.857 240.707 149.116 240.352C149.379 239.996 149.736 239.718 150.187 239.515C150.641 239.313 151.156 239.212 151.732 239.212C152.541 239.212 153.177 239.389 153.639 239.744C154.104 240.099 154.434 240.568 154.629 241.151Z" fill="#04004D"/>
<path d="M44 299C45.6569 299 47 297.657 47 296C47 294.343 45.6569 293 44 293C42.3431 293 41 294.343 41 296C41 297.657 42.3431 299 44 299Z" stroke="#292D32" stroke-width="1.5" stroke-miterlimit="10" stroke-linecap="round" stroke-linejoin="round"/>
<path d="M34 296.88V295.12C34 294.08 34.85 293.22 35.9 293.22C37.71 293.22 38.45 291.94 37.54 290.37C37.02 289.47 37.33 288.3 38.24 287.78L39.97 286.79C40.76 286.32 41.78 286.6 42.25 287.39L42.36 287.58C43.26 289.15 44.74 289.15 45.65 287.58L45.76 287.39C46.23 286.6 47.25 286.32 48.04 286.79L49.77 287.78C50.68 288.3 50.99 289.47 50.47 290.37C49.56 291.94 50.3 293.22 52.11 293.22C53.15 293.22 54.01 294.07 54.01 295.12V296.88C54.01 297.92 53.16 298.78 52.11 298.78C50.3 298.78 49.56 300.06 50.47 301.63C50.99 302.54 50.68 303.7 49.77 304.22L48.04 305.21C47.25 305.68 46.23 305.4 45.76 304.61L45.65 304.42C44.75 302.85 43.27 302.85 42.36 304.42L42.25 304.61C41.78 305.4 40.76 305.68 39.97 305.21L38.24 304.22C37.33 303.7 37.02 302.53 37.54 301.63C38.45 300.06 37.71 298.78 35.9 298.78C34.85 298.78 34 297.92 34 296.88Z" stroke="#292D32" stroke-width="1.5" stroke-miterlimit="10" stroke-linecap="round" stroke-linejoin="round"/>
<path d="M75.2869 293.318C75.223 292.778 74.9638 292.359 74.5092 292.061C74.0547 291.763 73.4972 291.614 72.8366 291.614C72.3537 291.614 71.9311 291.692 71.5689 291.848C71.2102 292.004 70.9297 292.219 70.7273 292.493C70.5284 292.766 70.429 293.077 70.429 293.425C70.429 293.716 70.4982 293.966 70.6367 294.176C70.7788 294.382 70.9599 294.554 71.18 294.692C71.4002 294.827 71.631 294.939 71.8725 295.028C72.114 295.113 72.3359 295.183 72.5384 295.236L73.6463 295.534C73.9304 295.609 74.2464 295.712 74.5945 295.843C74.946 295.974 75.2816 296.154 75.6012 296.381C75.9244 296.605 76.1907 296.892 76.4002 297.244C76.6097 297.596 76.7145 298.027 76.7145 298.538C76.7145 299.128 76.56 299.661 76.2511 300.136C75.9457 300.612 75.4982 300.99 74.9087 301.271C74.3228 301.551 73.6108 301.692 72.7727 301.692C71.9915 301.692 71.315 301.566 70.7433 301.314C70.1751 301.061 69.7276 300.71 69.4009 300.259C69.0778 299.808 68.8949 299.284 68.8523 298.688H70.2159C70.2514 299.099 70.3899 299.44 70.6314 299.71C70.8764 299.977 71.1854 300.175 71.5582 300.307C71.9347 300.435 72.3395 300.499 72.7727 300.499C73.277 300.499 73.7298 300.417 74.131 300.254C74.5323 300.087 74.8501 299.856 75.0845 299.561C75.3189 299.263 75.4361 298.915 75.4361 298.517C75.4361 298.155 75.3349 297.86 75.1325 297.633C74.93 297.406 74.6637 297.221 74.3335 297.079C74.0032 296.937 73.6463 296.812 73.2628 296.706L71.9205 296.322C71.0682 296.077 70.3935 295.728 69.8963 295.273C69.3991 294.819 69.1506 294.224 69.1506 293.489C69.1506 292.878 69.3157 292.345 69.646 291.891C69.9798 291.433 70.4272 291.077 70.9883 290.825C71.5529 290.57 72.1832 290.442 72.8793 290.442C73.5824 290.442 74.2074 290.568 74.7543 290.82C75.3011 291.069 75.7344 291.409 76.054 291.843C76.3771 292.276 76.5476 292.768 76.5653 293.318H75.2869ZM81.8464 301.67C81.058 301.67 80.378 301.496 79.8063 301.148C79.2381 300.797 78.7995 300.307 78.4906 299.678C78.1852 299.046 78.0325 298.311 78.0325 297.473C78.0325 296.635 78.1852 295.896 78.4906 295.257C78.7995 294.614 79.2292 294.114 79.7796 293.755C80.3336 293.393 80.9799 293.212 81.7186 293.212C82.1447 293.212 82.5655 293.283 82.981 293.425C83.3965 293.567 83.7747 293.798 84.1156 294.117C84.4565 294.433 84.7281 294.852 84.9306 295.374C85.133 295.896 85.2342 296.539 85.2342 297.303V297.835H78.9274V296.749H83.9558C83.9558 296.287 83.8634 295.875 83.6788 295.513C83.4977 295.151 83.2384 294.865 82.9011 294.655C82.5673 294.446 82.1731 294.341 81.7186 294.341C81.2178 294.341 80.7846 294.465 80.4188 294.714C80.0566 294.959 79.7779 295.278 79.5825 295.673C79.3872 296.067 79.2896 296.489 79.2896 296.94V297.665C79.2896 298.283 79.3961 298.806 79.6092 299.236C79.8258 299.662 80.1259 299.987 80.5094 300.211C80.8929 300.431 81.3386 300.541 81.8464 300.541C82.1767 300.541 82.4749 300.495 82.7413 300.403C83.0112 300.307 83.2438 300.165 83.4391 299.977C83.6344 299.785 83.7853 299.547 83.8919 299.263L85.1063 299.604C84.9785 300.016 84.7637 300.378 84.4618 300.69C84.16 300.999 83.7871 301.241 83.3432 301.415C82.8993 301.585 82.4004 301.67 81.8464 301.67ZM90.4047 293.318V294.384H86.1646V293.318H90.4047ZM87.4004 291.358H88.6575V299.156C88.6575 299.511 88.709 299.778 88.812 299.955C88.9186 300.129 89.0535 300.246 89.2168 300.307C89.3838 300.364 89.5595 300.392 89.7442 300.392C89.8827 300.392 89.9963 300.385 90.0851 300.371C90.1739 300.353 90.2449 300.339 90.2982 300.328L90.5539 301.457C90.4686 301.489 90.3497 301.521 90.197 301.553C90.0443 301.589 89.8507 301.607 89.6164 301.607C89.2612 301.607 88.9132 301.53 88.5723 301.377C88.235 301.225 87.9544 300.992 87.7307 300.68C87.5105 300.367 87.4004 299.973 87.4004 299.497V291.358ZM95.5539 293.318V294.384H91.3139V293.318H95.5539ZM92.5497 291.358H93.8068V299.156C93.8068 299.511 93.8583 299.778 93.9612 299.955C94.0678 300.129 94.2027 300.246 94.3661 300.307C94.533 300.364 94.7088 300.392 94.8934 300.392C95.0319 300.392 95.1455 300.385 95.2343 300.371C95.3231 300.353 95.3941 300.339 95.4474 300.328L95.7031 301.457C95.6178 301.489 95.4989 301.521 95.3462 301.553C95.1935 301.589 94.9999 301.607 94.7656 301.607C94.4105 301.607 94.0624 301.53 93.7215 301.377C93.3842 301.225 93.1036 300.992 92.8799 300.68C92.6597 300.367 92.5497 299.973 92.5497 299.497V291.358ZM97.1449 301.5V293.318H98.402V301.5H97.1449ZM97.7841 291.955C97.5391 291.955 97.3278 291.871 97.1502 291.704C96.9762 291.537 96.8892 291.337 96.8892 291.102C96.8892 290.868 96.9762 290.667 97.1502 290.5C97.3278 290.333 97.5391 290.25 97.7841 290.25C98.0291 290.25 98.2387 290.333 98.4127 290.5C98.5902 290.667 98.679 290.868 98.679 291.102C98.679 291.337 98.5902 291.537 98.4127 291.704C98.2387 291.871 98.0291 291.955 97.7841 291.955ZM101.662 296.578V301.5H100.404V293.318H101.619V294.597H101.725C101.917 294.181 102.208 293.847 102.599 293.595C102.99 293.339 103.494 293.212 104.112 293.212C104.666 293.212 105.151 293.325 105.566 293.553C105.982 293.776 106.305 294.117 106.536 294.575C106.766 295.03 106.882 295.605 106.882 296.301V301.5H105.625V296.386C105.625 295.744 105.458 295.243 105.124 294.884C104.79 294.522 104.332 294.341 103.75 294.341C103.348 294.341 102.99 294.428 102.674 294.602C102.361 294.776 102.114 295.03 101.933 295.364C101.752 295.697 101.662 296.102 101.662 296.578ZM112.181 304.739C111.574 304.739 111.052 304.661 110.615 304.504C110.179 304.352 109.815 304.149 109.523 303.897C109.236 303.648 109.007 303.382 108.836 303.098L109.838 302.395C109.951 302.544 110.095 302.714 110.269 302.906C110.443 303.102 110.681 303.27 110.983 303.412C111.288 303.558 111.688 303.631 112.181 303.631C112.842 303.631 113.387 303.471 113.817 303.151C114.246 302.832 114.461 302.331 114.461 301.649V299.987H114.355C114.262 300.136 114.131 300.321 113.961 300.541C113.794 300.758 113.552 300.951 113.236 301.122C112.924 301.289 112.501 301.372 111.968 301.372C111.308 301.372 110.715 301.216 110.189 300.903C109.667 300.591 109.254 300.136 108.948 299.54C108.646 298.943 108.495 298.219 108.495 297.366C108.495 296.528 108.643 295.799 108.937 295.177C109.232 294.552 109.642 294.069 110.168 293.728C110.694 293.384 111.301 293.212 111.99 293.212C112.522 293.212 112.945 293.3 113.257 293.478C113.573 293.652 113.815 293.851 113.982 294.075C114.152 294.295 114.284 294.476 114.376 294.618H114.504V293.318H115.718V301.734C115.718 302.438 115.559 303.009 115.239 303.45C114.923 303.893 114.497 304.218 113.961 304.424C113.428 304.634 112.835 304.739 112.181 304.739ZM112.139 300.243C112.643 300.243 113.069 300.127 113.417 299.897C113.765 299.666 114.03 299.334 114.211 298.901C114.392 298.467 114.483 297.949 114.483 297.345C114.483 296.756 114.394 296.235 114.216 295.784C114.039 295.333 113.776 294.98 113.428 294.724C113.08 294.469 112.65 294.341 112.139 294.341C111.606 294.341 111.162 294.476 110.807 294.746C110.456 295.016 110.191 295.378 110.013 295.832C109.839 296.287 109.752 296.791 109.752 297.345C109.752 297.913 109.841 298.416 110.019 298.853C110.2 299.286 110.466 299.627 110.818 299.875C111.173 300.12 111.613 300.243 112.139 300.243ZM123.515 295.151L122.386 295.47C122.315 295.282 122.21 295.099 122.071 294.922C121.936 294.74 121.752 294.591 121.517 294.474C121.283 294.357 120.983 294.298 120.617 294.298C120.117 294.298 119.699 294.414 119.365 294.645C119.035 294.872 118.87 295.161 118.87 295.513C118.87 295.825 118.984 296.072 119.211 296.253C119.438 296.434 119.793 296.585 120.276 296.706L121.491 297.004C122.222 297.182 122.767 297.453 123.126 297.819C123.485 298.181 123.664 298.648 123.664 299.22C123.664 299.689 123.529 300.108 123.259 300.477C122.993 300.847 122.62 301.138 122.141 301.351C121.661 301.564 121.104 301.67 120.468 301.67C119.634 301.67 118.943 301.489 118.396 301.127C117.849 300.765 117.503 300.236 117.357 299.54L118.55 299.241C118.664 299.682 118.879 300.012 119.195 300.232C119.515 300.452 119.932 300.562 120.447 300.562C121.033 300.562 121.498 300.438 121.842 300.19C122.19 299.937 122.364 299.636 122.364 299.284C122.364 299 122.265 298.762 122.066 298.57C121.867 298.375 121.562 298.229 121.15 298.134L119.786 297.814C119.037 297.636 118.487 297.361 118.135 296.988C117.787 296.612 117.613 296.141 117.613 295.577C117.613 295.115 117.743 294.707 118.002 294.352C118.265 293.996 118.622 293.718 119.072 293.515C119.527 293.313 120.042 293.212 120.617 293.212C121.427 293.212 122.063 293.389 122.524 293.744C122.989 294.099 123.32 294.568 123.515 295.151Z" fill="#04004D"/>
</svg>
